# xmcd
#
# Track frame offsets:
#	150
#	20141
#	43131
#	66111
#	87890
#	111218
#	134244
#	156709
#	178704
#	199809
#	222172
#	243465
#	264172
#	287460
#	307573
#	330089
#
# Disc length: 4697 seconds
#
# Revision: 2
# Processed by: cddbd v1.5.2PL0 Copyright (c) Steve Scherf et al.
# Submitted via: EasyCDDAExtractor 15.3.0.1
#
DISCID=e6125710
DTITLE=Victor Manuelle - Historia De Un Sonero
DYEAR=2008
DGENRE=Latin
TTITLE0=Me Dara El Consentimiento
TTITLE1=Apiadate De Mi
TTITLE2=Hay Que Poner El Alma
TTITLE3=Como Una Estrella
TTITLE4=Asi Es La Mujer
TTITLE5=Dile A Ella
TTITLE6=Se Me Rompe El Alma
TTITLE7=Que Habria Sido De Mi
TTITLE8=Si La Ves
TTITLE9=Pero Dile
TTITLE10=Como Se Lo Explico Al Corazon
TTITLE11=El Tonto Que No Te Olvido
TTITLE12=Llore Llore
TTITLE13=Tengo Ganas
TTITLE14=Nuestro Amor Se Ha Vuelto Ayer
TTITLE15=Nunca Habia Llorado Asi (Duo Con Don Omar)
EXTD=
EXTT0=
EXTT1=
EXTT2=
EXTT3=
EXTT4=
EXTT5=
EXTT6=
EXTT7=
EXTT8=
EXTT9=
EXTT10=
EXTT11=
EXTT12=
EXTT13=
EXTT14=
EXTT15=
PLAYORDER=
